<?xml version="1.0" encoding="utf-8" ?>
<svg xmlns="http://www.w3.org/2000/svg" xmlns:xlink="http://www.w3.org/1999/xlink" width="1024" height="1024" viewBox="0 0 1024 400">
	<path fill="white" transform="scale(0.999808 0.999808)" d="M957.575 532.244C959.01 532.318 959.367 532.199 960.484 533.063C960.995 534.288 961.393 534.507 960.981 535.818C957.812 537.5 924.891 536.572 918.875 536.593L916.768 536.41C915.905 535.582 915.575 535.049 915.183 533.92L915.553 533.188C918.944 531.316 951.039 532.278 957.575 532.244Z"/>
	<path fill="white" transform="scale(0.999808 0.999808)" d="M122.358 525.459C124.285 525.31 125.699 525.266 127.346 526.513C130.723 529.071 142.119 539.628 142.049 543.925C142.016 546.002 139.402 547.875 138.001 549.16C137.11 549.44 136.207 549.728 135.269 549.8C132.229 550.035 129.221 547.2 127.191 545.236C123.51 541.676 119.413 536.667 119.525 531.289C119.581 528.603 120.47 527.274 122.358 525.459Z"/>
	<path fill="white" transform="scale(0.999808 0.999808)" d="M184.728 516.317C186.359 521.94 189.152 533.411 187.479 538.78C185.933 543.739 182.055 548.719 177.393 551.087C174.605 552.503 172.644 552.011 169.787 551.074C169.555 550.916 169.321 550.762 169.092 550.6C166.741 548.939 164.726 546.505 164.374 543.568C163.283 534.482 179.15 523.719 184.311 516.88L184.728 516.317Z"/>
	<path fill="white" transform="scale(0.999808 0.999808)" d="M135.036 511.022Q154.511 511.016 173.985 511.223C171.764 516.764 168.873 521.654 165.113 526.286C162.289 529.573 159.115 533.591 155.045 535.306C152.95 536.188 150.691 536.296 148.603 535.341C139.702 531.268 138.527 519.384 135.257 511.534C135.185 511.362 135.11 511.192 135.036 511.022Z"/>
	<path fill="white" transform="scale(0.999808 0.999808)" d="M763.649 397.551L777.475 397.503L777.508 469.088L808.519 468.988L808.535 482.861L763.487 482.914L763.649 397.551Z"/>
	<path fill="white" transform="scale(0.999808 0.999808)" d="M305.823 529.95L630.791 529.952L721.521 530.013L745.605 530.043C749.566 530.047 754.08 529.632 757.954 530.302C758.567 531.306 758.525 531.317 758.363 532.491L757.525 533.067C729.406 533.436 701.25 533.149 673.126 533.293L441.663 533.709L351.538 533.64L322.907 533.88C317.438 533.937 311.776 534.331 306.333 533.794C305.551 532.396 305.777 531.53 305.823 529.95Z"/>
	<path fill="white" transform="scale(0.999808 0.999808)" d="M422.423 397.771L423.093 397.713C424.487 399.932 423.833 407.272 423.977 410.233C413.225 409.778 402.373 410.068 391.609 410.066C392.221 417.796 391.853 425.762 391.653 433.511C400.959 434.303 410.598 433.721 419.948 433.707L420.022 446.143Q405.845 445.928 391.669 446.22C392.079 454.315 391.845 462.482 391.81 470.588C401.554 471.106 411.368 470.9 421.125 470.9C422.374 470.869 423.357 470.82 424.568 471.184C426.673 473.773 425.493 480.331 425.444 483.59C409.468 483.306 393.457 483.508 377.478 483.537L377.521 397.705C392.425 398.345 407.507 398.033 422.423 397.771Z"/>
	<path fill="white" transform="scale(0.999808 0.999808)" d="M928.104 397.102C930.987 396.827 934.125 396.809 937.028 396.866C948.436 397.09 956.766 402.864 964.4 410.823C961.278 414.14 958.1 417.351 954.723 420.409C951.331 416.984 947.827 413.583 943.378 411.563C937.839 409.047 932.062 409.183 926.444 411.384Q925.842 411.62 925.252 411.884Q924.662 412.15 924.086 412.443Q923.51 412.737 922.95 413.059Q922.389 413.381 921.845 413.73Q921.301 414.08 920.775 414.456Q920.248 414.831 919.741 415.233Q919.234 415.634 918.748 416.06Q918.262 416.486 917.797 416.936Q917.332 417.385 916.89 417.857Q916.448 418.329 916.03 418.822Q915.612 419.315 915.219 419.829Q914.825 420.342 914.458 420.874Q914.091 421.406 913.75 421.956Q913.41 422.505 913.097 423.071Q912.784 423.637 912.499 424.217Q912.214 424.798 911.959 425.392C908.221 434.1 907.982 445.609 911.744 454.342C914.402 460.512 919.24 465.401 925.591 467.716C934.108 470.819 942.603 469.286 950.581 465.604L950.538 454.038L932.722 454.121L932.736 446.846L932.673 440.127L964.892 440.024Q965.106 456.125 964.988 472.227C959.801 476.534 953.07 479.966 946.52 481.575C935.911 484.18 923.401 482.837 914.051 477.033Q913.226 476.514 912.428 475.956Q911.63 475.398 910.86 474.801Q910.09 474.204 909.35 473.571Q908.61 472.937 907.902 472.268Q907.194 471.599 906.519 470.896Q905.845 470.193 905.205 469.458Q904.566 468.723 903.963 467.958Q903.361 467.193 902.796 466.399Q902.232 465.605 901.707 464.784Q901.182 463.964 900.697 463.118Q900.213 462.273 899.771 461.405Q899.328 460.537 898.929 459.649Q898.529 458.76 898.174 457.853Q897.818 456.946 897.507 456.023Q897.197 455.1 896.931 454.163Q896.666 453.225 896.447 452.276C893.599 440.027 895.269 425.575 902.017 414.845C908.34 404.792 916.693 399.642 928.104 397.102Z"/>
	<path fill="white" transform="scale(0.999808 0.999808)" d="M139.628 395.805L139.918 395.952C141.221 398.658 140.416 413.352 140.389 417.063Q128.941 417.248 117.491 417.243C118.611 439.733 117.799 462.564 117.916 485.097C109.225 485.339 100.505 485.254 91.8096 485.307C91.5768 478.966 91.6678 472.595 91.6536 466.25Q91.8764 441.692 91.5926 417.134Q80.4222 417.073 69.2598 417.503Q69.3379 406.644 69.0384 395.788C92.4852 396.515 116.163 396.041 139.628 395.805Z"/>
	<path fill="white" transform="scale(0.999808 0.999808)" d="M438.902 397.569C452.234 398.103 470.963 394.874 482.706 401.592C488.61 404.97 493.427 410.561 495.205 417.199C497.121 424.356 496.255 432.97 492.47 439.352C488.546 445.969 482.812 449.369 475.576 451.266C479.528 455.862 482.883 461.119 486.383 466.068C490.307 471.617 494.552 477.063 497.906 482.982L486.375 483.106L482.622 483.3C476.21 473.024 468.92 463.199 462.367 452.976C459.149 452.895 455.919 452.951 452.7 452.959C453.267 462.929 452.936 473.064 452.966 483.055Q445.993 483.188 439.025 483.506C438.508 454.892 438.896 426.192 438.902 397.569ZM452.564 409.457Q452.823 424.97 452.813 440.485C461.528 440.594 470.462 441.683 477.957 436.33C481.018 432.983 482.664 429.113 482.502 424.509C482.36 420.482 481.094 416.496 478.098 413.691C471.92 407.906 460.433 409.383 452.564 409.457Z"/>
	<path fill="white" transform="scale(0.999808 0.999808)" d="M509.346 397.379C522.668 397.397 544.104 395.003 555.669 401.659C561.275 404.886 565.179 410.183 566.81 416.424C568.636 423.41 567.812 431.773 564.127 437.998C560.327 444.416 554.341 447.769 547.351 449.527C550.716 453.888 553.062 458.967 555.85 463.703C559.559 470.005 563.591 476.083 567.027 482.546L552.875 482.491L551.041 482.317C546.864 479.651 535.783 456.003 532.845 450.369C529.684 450.056 526.498 450.288 523.329 450.405C523.765 460.959 523.204 471.645 523.395 482.224C518.804 482.556 514.108 482.434 509.502 482.502C509.14 454.133 509.645 425.75 509.346 397.379ZM523.847 409.74C523.258 419.365 523.974 429.089 523.719 438.73C531.889 438.85 542.38 440.522 549.15 435.104C552.099 430.713 554.042 426.465 553.054 420.997C552.423 417.505 550.543 414.511 547.599 412.515C541.373 408.294 531.052 409.662 523.847 409.74Z"/>
	<path fill="white" transform="scale(0.999808 0.999808)" d="M673.127 397.249C685.489 397.381 700.029 395.37 711.522 400.714C717.2 403.353 721.692 407.89 723.767 413.85C726.145 420.682 725.86 429.453 722.462 435.859C718.497 443.332 712.084 446.475 704.375 448.777C708.202 453.813 711.554 459.284 715.141 464.501C719.322 470.584 723.782 476.472 727.765 482.688C724.092 482.689 713.895 483.709 711.171 481.736C703.672 471.553 696.972 460.866 689.79 450.476L681.028 450.523C681.291 461.188 681.11 471.909 681.123 482.58C676.243 482.448 671.342 482.552 666.46 482.562L666.47 397.355L673.127 397.249ZM680.887 409.559Q681.034 424.212 680.933 438.865C689.753 439.039 699.931 440.643 707.277 434.787C710.255 430.359 712.138 425.884 711.061 420.416C710.383 416.973 708.442 413.92 705.466 412.023C698.843 407.801 688.424 409.783 680.887 409.559Z"/>
	<path fill="white" transform="scale(0.999808 0.999808)" d="M253.786 395.554C260.907 396.753 269.338 395.956 276.601 395.946C289.865 395.927 303.213 396.201 316.466 395.695Q316.311 406.08 316.435 416.466L278.532 416.5C278.724 420.567 278.739 424.589 278.643 428.659C289.406 429.237 300.542 429.091 311.306 428.566C310.921 435.416 311.16 442.421 311.054 449.292C300.225 449.082 289.37 449.307 278.541 449.462C278.745 454.334 278.62 459.243 278.61 464.12L317.077 464.043L317.032 485.048Q285.486 485.309 253.94 485.198C253.546 475.033 253.798 464.76 253.779 454.584L253.786 395.554Z"/>
	<path fill="white" transform="scale(0.999808 0.999808)" d="M208.148 395.747C216.356 396.459 225.014 395.902 233.269 395.842L233.496 485.004C224.971 485.111 216.434 485.015 207.908 485.013C207.413 473.107 207.907 461.015 207.963 449.091C198.879 449.347 189.74 449.114 180.65 449.088C181.123 459.3 180.847 469.645 180.857 479.875C180.918 481.551 180.855 483.152 180.72 484.824C172.397 485.927 163.317 484.925 154.875 485.329L154.877 395.929L180.891 395.924L180.917 428.075L208.045 428.065C207.969 417.417 207.279 406.332 208.148 395.747Z"/>
	<path fill="white" transform="scale(0.999808 0.999808)" d="M842.733 397.094C851.682 396.408 860.102 397.404 867.945 402.088C877.131 407.572 883.29 417.317 885.753 427.589C888.719 439.958 887.453 452.554 880.751 463.436C874.518 473.558 865.353 479.221 853.932 481.877Q853.026 482.008 852.116 482.098Q851.205 482.188 850.292 482.236Q849.378 482.285 848.463 482.293Q847.548 482.3 846.634 482.266Q845.72 482.232 844.808 482.157Q843.896 482.082 842.989 481.966Q842.081 481.85 841.18 481.694Q840.278 481.537 839.385 481.339Q838.492 481.142 837.608 480.905Q836.724 480.667 835.853 480.39Q834.98 480.113 834.122 479.797Q833.263 479.481 832.42 479.127Q831.576 478.772 830.75 478.38Q829.923 477.988 829.115 477.559Q828.307 477.13 827.519 476.665Q826.731 476.2 825.965 475.7C816.777 469.714 811.345 458.998 809.269 448.463Q809.058 447.388 808.899 446.305Q808.74 445.221 808.634 444.131Q808.528 443.041 808.475 441.947Q808.422 440.854 808.423 439.758Q808.423 438.663 808.477 437.569Q808.531 436.476 808.638 435.386Q808.745 434.296 808.905 433.212Q809.064 432.129 809.277 431.054Q809.489 429.98 809.754 428.917Q810.018 427.855 810.334 426.806Q810.65 425.757 811.017 424.725Q811.383 423.693 811.799 422.681Q812.216 421.668 812.681 420.676Q813.146 419.685 813.659 418.717Q814.172 417.749 814.731 416.808Q815.291 415.866 815.895 414.953C822.291 405.435 831.515 399.28 842.733 397.094ZM844.495 410.632C837.208 412.052 832.117 414.81 827.914 421.144C823.109 428.385 820.975 437.997 822.85 446.535C824.493 454.014 828.775 460.909 835.345 465.012C840.545 468.259 845.372 468.649 851.281 468.507C858.891 466.563 865.075 463.013 869.092 455.952C873.568 448.083 873.733 437.17 871.178 428.647C869.157 421.906 865.044 416.061 858.655 412.825C853.996 410.465 849.561 410.352 844.495 410.632Z"/>
	<path fill="white" transform="scale(0.999808 0.999808)" d="M608.524 396.162C617.358 395.236 627.104 396.677 634.625 401.611C644.225 407.908 651.472 418.609 653.726 429.866C656.248 442.466 653.975 456.038 646.773 466.734C640.6 475.901 631.87 481.394 621.114 483.491C610.141 483.595 601.165 483.762 591.863 477.025C582.669 470.367 575.8 459.16 574.024 447.952Q573.835 446.748 573.706 445.536Q573.578 444.325 573.51 443.108Q573.442 441.891 573.435 440.673Q573.428 439.454 573.482 438.237Q573.536 437.019 573.651 435.806Q573.766 434.593 573.942 433.387Q574.118 432.181 574.353 430.986Q574.589 429.79 574.884 428.608Q575.18 427.426 575.534 426.26Q575.888 425.094 576.3 423.947Q576.712 422.8 577.181 421.675Q577.649 420.551 578.174 419.451Q578.699 418.351 579.278 417.279Q579.857 416.206 580.489 415.164Q581.12 414.123 581.804 413.114Q582.487 412.105 583.22 411.131C589.541 402.646 598.108 397.621 608.524 396.162ZM613.053 408.615C604.725 410.218 598.3 413.519 593.469 420.748C588.488 428.202 587.011 438.375 588.824 447.077C590.54 455.312 595.474 463.176 602.664 467.676C605.931 469.721 610.869 471.549 614.729 470.851C622.759 469.496 628.993 466.556 633.799 459.701C639.374 451.751 641.182 441.514 639.458 432.022C638.03 424.158 633.175 416.659 626.47 412.266C622.288 409.526 618.011 408.457 613.053 408.615Z"/>
	<path fill="white" transform="scale(0.999808 0.999808)" d="M829.375 496.188C829.523 496.149 829.669 496.092 829.821 496.069C846.148 493.577 863.703 498.489 877.405 507.285C893.956 517.91 904.457 534.339 908.48 553.503C913.469 577.259 907.154 594.596 894.357 614.227C898.395 619.573 903.146 624.396 907.705 629.294C909.544 627.67 911.112 626.434 913.626 626.181C916.033 625.939 917.57 626.91 919.321 628.44C925.911 634.198 931.724 641.267 937.86 647.532C945.508 655.341 954.131 662.939 961.03 671.379C962.788 673.531 965.645 676.822 965.682 679.674C965.729 683.255 963.356 686.813 960.951 689.27C958.499 691.775 955.905 693.355 952.331 693.236C950.569 693.178 949.018 692.656 947.586 691.623C942.369 687.863 929.361 673.088 924.396 667.858C916.775 659.844 905.452 651.135 900.214 641.446C900.803 639.314 901.656 637.367 902.552 635.355C897.814 630.395 893.155 625.33 888.069 620.722C877.33 632.373 862.681 639.154 846.999 641.089Q845.283 641.284 843.559 641.396Q841.835 641.507 840.108 641.536Q838.381 641.564 836.654 641.509Q834.928 641.453 833.206 641.314Q831.484 641.176 829.771 640.954Q828.058 640.732 826.358 640.427Q824.657 640.122 822.974 639.736Q821.29 639.349 819.627 638.882Q817.964 638.414 816.326 637.867Q814.688 637.32 813.078 636.694Q811.468 636.068 809.89 635.364Q808.312 634.661 806.77 633.883Q805.228 633.104 803.726 632.251Q802.223 631.399 800.764 630.475Q799.304 629.551 797.891 628.557Q796.478 627.564 795.115 626.503C779.954 614.645 769.149 596.437 766.978 577.246Q766.763 575.394 766.64 573.534Q766.517 571.673 766.487 569.809Q766.457 567.945 766.52 566.081Q766.582 564.218 766.738 562.36Q766.894 560.502 767.142 558.654Q767.39 556.806 767.729 554.973Q768.069 553.14 768.5 551.326Q768.93 549.512 769.451 547.721Q769.971 545.931 770.581 544.169Q771.19 542.407 771.886 540.677Q772.582 538.947 773.363 537.255Q774.145 535.562 775.009 533.91Q775.874 532.258 776.82 530.652Q777.766 529.045 778.791 527.487Q779.816 525.93 780.917 524.425Q782.018 522.921 783.193 521.473C794.101 508.021 812.118 498.034 829.375 496.188ZM834.793 502.709C816.008 503.932 801.816 511.874 789.491 525.979Q788.457 527.14 787.482 528.35Q786.507 529.561 785.593 530.819Q784.679 532.077 783.829 533.378Q782.979 534.68 782.195 536.022Q781.411 537.364 780.694 538.744Q779.977 540.123 779.33 541.537Q778.683 542.95 778.107 544.394Q777.531 545.838 777.027 547.309Q776.524 548.779 776.094 550.273Q775.664 551.767 775.309 553.281Q774.954 554.794 774.675 556.323Q774.395 557.853 774.192 559.394Q773.989 560.935 773.863 562.484Q773.737 564.034 773.688 565.588Q773.639 567.141 773.667 568.696Q773.695 570.25 773.801 571.801C774.997 589.524 783.106 606.736 796.614 618.402C809.722 629.723 825.919 634.398 843.006 634.107Q844.52 634.026 846.028 633.871Q847.536 633.716 849.034 633.486Q850.532 633.257 852.018 632.954Q853.503 632.651 854.971 632.275Q856.44 631.899 857.888 631.451Q859.336 631.003 860.76 630.484Q862.185 629.966 863.582 629.377Q864.979 628.789 866.345 628.132Q867.712 627.476 869.044 626.753Q870.376 626.029 871.671 625.241Q872.966 624.454 874.221 623.603Q875.475 622.752 876.686 621.84Q877.897 620.929 879.062 619.958Q880.227 618.988 881.342 617.961Q882.457 616.935 883.521 615.855Q884.584 614.774 885.593 613.643C896.954 600.935 904.574 583.178 903.512 565.942Q903.415 564.255 903.235 562.575Q903.056 560.896 902.793 559.227Q902.53 557.558 902.185 555.904Q901.84 554.25 901.414 552.615Q900.988 550.98 900.481 549.368Q899.975 547.757 899.389 546.172Q898.804 544.587 898.141 543.033Q897.478 541.479 896.738 539.96Q895.999 538.441 895.186 536.96Q894.373 535.479 893.487 534.041Q892.601 532.602 891.646 531.208Q890.69 529.815 889.667 528.471Q888.644 527.126 887.555 525.834Q886.467 524.542 885.316 523.305Q884.165 522.069 882.954 520.89Q881.743 519.712 880.476 518.595C867.971 507.743 851.194 502.397 834.793 502.709Z"/>
	<path fill="white" transform="scale(0.999808 0.999808)" d="M827.735 527.494C827.485 526.047 827.334 524.724 827.298 523.257C828.194 522.377 829.029 522.189 830.235 522.026C835.499 521.317 844.603 520.481 849.014 523.65C843.827 527.593 833.986 527.511 827.735 527.494Z"/>
	<path fill="white" transform="scale(0.999808 0.999808)" d="M829.156 615.265C829.213 614.788 829.403 614.417 829.795 614.101C831.893 612.407 864.626 594.831 865.707 594.765C860.686 604.159 853.873 612.628 843.298 615.942C838.403 617.477 833.878 617.132 829.156 615.265Z"/>
	<path fill="#D82C2C" transform="scale(0.999808 0.999808)" d="M849.014 523.65L849.755 526.512C845.024 530.253 839.105 532.849 833.852 535.844C825.871 540.395 818.063 545.399 809.709 549.259C813.914 540.18 823.371 535.424 827.735 527.494C833.986 527.511 843.827 527.593 849.014 523.65Z"/>
	<path fill="#D82C2C" transform="scale(0.999808 0.999808)" d="M821.747 610.763C830.945 604.743 840.963 599.756 850.626 594.51C856.894 591.107 862.972 587.312 869.373 584.169C868.615 587.925 867.705 591.446 865.707 594.765C864.626 594.831 831.893 612.407 829.795 614.101C829.403 614.417 829.213 614.788 829.156 615.265C828.846 615.209 828.532 615.169 828.225 615.096C824.036 614.099 820.644 611.738 818.226 608.235C819.472 608.961 820.596 609.894 821.747 610.763Z"/>
	<path fill="white" transform="scale(0.999808 0.999808)" d="M809.709 549.259C818.063 545.399 825.871 540.395 833.852 535.844C839.105 532.849 845.024 530.253 849.755 526.512C851.091 529.515 852.557 532.483 854.711 534.997C849.841 538.719 840.461 542.891 834.826 546.118C825.624 551.387 816.517 557.901 806.904 562.307L805.755 562.103C806.61 557.565 808.001 553.536 809.709 549.259Z"/>
	<path fill="white" transform="scale(0.999808 0.999808)" d="M870.733 563.65C871.26 566.508 871.333 568.621 870.475 571.397C870.359 575.703 870.104 579.919 869.373 584.169C862.972 587.312 856.894 591.107 850.626 594.51C840.963 599.756 830.945 604.743 821.747 610.763C820.596 609.894 819.472 608.961 818.226 608.235L817.927 607.952C814.447 605.657 811.463 602.084 810.231 598.09C816.951 594.122 868.741 566.325 870.146 564.812C870.441 564.494 870.537 564.038 870.733 563.65Z"/>
	<path fill="#D82C2C" transform="scale(0.999808 0.999808)" d="M870.733 563.65C871.26 566.508 871.333 568.621 870.475 571.397C863.198 576.562 855.302 580.834 847.54 585.214Q830.991 594.711 813.914 603.222C815.266 604.774 816.704 606.297 817.927 607.952C814.447 605.657 811.463 602.084 810.231 598.09C816.951 594.122 868.741 566.325 870.146 564.812C870.441 564.494 870.537 564.038 870.733 563.65Z"/>
	<path fill="#D82C2C" transform="scale(0.999808 0.999808)" d="M854.711 534.997L855.121 535.428C856.513 536.911 857.771 538.552 859.342 539.851C861.862 542.682 864.277 545.412 866.286 548.638C867.259 550.428 868.068 552.102 868.663 554.054L870.733 563.65C870.537 564.038 870.441 564.494 870.146 564.812C868.741 566.325 816.951 594.122 810.231 598.09L808.813 594.409C805.6 587.39 805.098 582.183 805.174 574.565C805.1 570.567 804.648 565.967 805.755 562.103L806.904 562.307C816.517 557.901 825.624 551.387 834.826 546.118C840.461 542.891 849.841 538.719 854.711 534.997Z"/>
	<path fill="white" transform="scale(0.999808 0.999808)" d="M859.342 539.851C861.862 542.682 864.277 545.412 866.286 548.638C857.998 550.773 849.016 557.029 841.578 561.262C829.758 567.99 818.019 574.917 806.011 581.305L805.518 574.733C805.511 573.202 805.578 571.804 805.828 570.293C810.173 567.014 815.881 564.743 820.672 562.058C833.593 554.818 846.818 547.748 859.342 539.851Z"/>
	<path fill="white" transform="scale(0.999808 0.999808)" d="M868.663 554.054L870.733 563.65C870.537 564.038 870.441 564.494 870.146 564.812C868.741 566.325 816.951 594.122 810.231 598.09L808.813 594.409C808.491 592.564 807.907 590.756 807.404 588.952C827.35 576.519 848.416 565.966 868.663 554.054Z"/>
	<path fill="white" transform="scale(0.999808 0.999808)" d="M123.787 633.251Q113.23 642.498 103.333 652.447C96.7828 658.991 71.7416 686.215 66.1752 688.885C60.7611 691.482 51.4902 690.447 46.08 688.307C37.297 684.833 28.838 677.748 25.1656 668.897C23.4395 664.737 23.0786 660.36 22.9059 655.901C22.2125 638.002 22.7578 619.881 22.7343 601.96L22.7282 494.157L22.7358 411.316C22.7186 396.856 21.9941 382.145 22.7795 367.717C22.9858 363.927 23.9197 360.256 25.381 356.761C28.9402 348.249 35.7403 340.515 44.4358 337.062C47.9247 335.676 51.6088 335.071 55.3457 334.952C70.2252 334.477 85.2933 334.946 100.19 334.938L196.991 334.883L537.008 334.522L828.416 334.508L923.401 334.569C939.379 334.56 955.545 333.931 971.496 334.489Q973.204 334.558 974.898 334.781Q976.593 335.005 978.26 335.382Q979.927 335.759 981.553 336.286Q983.18 336.812 984.751 337.485Q985.495 337.797 986.223 338.145Q986.951 338.494 987.661 338.878Q988.37 339.263 989.06 339.682Q989.749 340.101 990.417 340.554Q991.085 341.007 991.73 341.492Q992.374 341.978 992.994 342.495Q993.614 343.012 994.207 343.559Q994.8 344.106 995.365 344.682Q995.931 345.258 996.466 345.862Q997.002 346.465 997.507 347.094Q998.012 347.724 998.486 348.377Q998.959 349.031 999.399 349.707Q999.839 350.384 1000.25 351.081Q1000.65 351.779 1001.02 352.495Q1001.39 353.212 1001.73 353.947Q1002.06 354.681 1002.36 355.431C1003.93 359.373 1004.71 363.567 1004.91 367.796C1005.65 383.489 1005.05 399.482 1005.07 415.2L1005.14 505.631L1005.14 601.563C1005.16 618.6 1005.79 635.818 1005.13 652.836C1004.97 657.166 1004.67 662.595 1002.86 666.557C1001.61 669.3 1000.32 672.033 998.629 674.539C992.87 683.068 983.894 687.902 973.948 689.766L974.107 689.371C974.193 689.15 974.274 688.928 974.361 688.708C977.162 681.667 974.614 679.079 975.623 674.208C976.011 672.336 987.028 668.501 988.966 659.294C990.638 651.355 989.61 633.567 989.608 624.493L989.668 553.642L989.629 431.729C989.657 411.97 990.655 389.933 989.733 370.4C989.53 366.104 989.151 362.348 986.537 358.755C983.788 354.976 979.465 351.349 974.72 350.608C967.051 349.41 955.342 350.412 947.277 350.421L887.811 350.41L665.626 350.386L256.256 350.368L119.642 350.374L81.1267 350.308C73.2858 350.247 65.2932 349.865 57.4641 350.261C52.6125 350.507 48.3236 351.881 44.4812 354.921C40.9668 357.701 38.6407 361.46 38.24 365.964C37.7108 371.914 38.055 378.103 38.0859 384.078L38.1982 415.329L38.3624 516.073L38.3805 613.735C38.3941 628.995 37.5735 644.788 38.5609 659.978C38.7315 662.604 40.623 665.738 42.2917 667.706C44.6074 670.438 48.1595 672.967 51.8705 673.057C54.0031 673.108 56.1723 672.512 57.8461 671.166C61.6963 668.072 64.6965 663.3 68.1518 659.706Q83.3485 643.605 99.2197 628.169C92.9441 621.008 90.9102 614.207 89.6519 604.899C84.6954 605.337 79.8184 605.432 74.8449 605.33C73.2013 604.416 71.918 603.652 70.6478 602.252C69.0035 597.631 68.9354 583.217 70.3097 578.504C71.5263 574.332 79.3599 573.948 82.7765 571.931C92.5783 566.147 92.8192 556.613 95.5274 546.931L95.6429 546.529C85.735 533.633 72.8244 522.93 62.3321 510.453L86.053 510.588C92.3387 514.388 106.381 530.478 112.011 536.481C119.415 544.375 126.944 551.973 134.093 560.125C135.403 561.12 135.774 561.787 137.534 561.487C140.324 561.011 143.211 559.711 145.987 559.017Q146.745 558.826 147.511 558.673Q148.277 558.52 149.05 558.406Q149.823 558.293 150.601 558.218Q151.379 558.143 152.159 558.108Q152.94 558.073 153.721 558.077Q154.503 558.082 155.283 558.125Q156.063 558.169 156.84 558.252Q157.617 558.336 158.388 558.458Q159.16 558.58 159.925 558.741Q160.689 558.903 161.445 559.102Q162.2 559.302 162.945 559.539Q163.689 559.777 164.42 560.052Q165.152 560.327 165.868 560.638Q166.585 560.95 167.285 561.297Q167.985 561.644 168.666 562.027Q169.348 562.409 170.009 562.825C170.231 562.966 170.446 563.118 170.664 563.264C175.497 558.954 179.638 553.797 184.104 549.109C196.454 536.144 208.507 522.955 220.705 509.853L247.251 509.914C233.887 523.854 221.661 539.166 208.737 553.549C213.801 560.285 216.129 566.347 217.321 574.669C223.039 575.141 231.02 572.964 236.268 575.04C237.051 575.349 237.422 576.119 237.732 576.864C239.727 581.665 239.595 597.182 237.809 602.168C233.784 605.852 220.247 604.153 214.466 604.078C214.652 613.437 214.465 619.312 208.007 626.766C223.813 642.149 237.851 659.204 254.45 673.81C265.802 673.16 277.399 673.589 288.782 673.578L352.992 673.573L548.47 673.686L816.058 673.856L876.294 673.881C888.085 673.849 899.94 673.553 911.721 673.999C917.505 677.912 922.536 684.45 926.826 689.912Q868.611 690.205 810.397 689.857L685.053 689.792L244.425 689.83C225.14 669.102 204.516 649.584 184.454 629.611C185.385 633.504 189.266 642.594 187.663 646.113C185.892 650.001 175.388 651.852 171.543 652.973C171.546 655.698 172.324 669.514 171.228 670.44C168.194 673.003 151.655 672.2 146.966 672.092C145.144 672.05 141.793 672.21 140.537 670.801C137.455 667.343 138.779 657.651 138.889 653.22C134.667 652.616 123.382 652.144 121.046 648.176C118.905 644.538 122.524 636.927 123.787 633.251ZM134.093 560.125C134.408 560.776 135.285 562.032 135.036 562.716C133.869 565.923 128.431 568.198 126.511 571.252C123.275 576.4 122.403 581.981 120.658 587.632C119.356 587.836 118.241 586.77 117.122 586.102C120.925 590.451 119.76 593.409 120.047 598.712C123.655 612.971 123.337 624.882 137.704 633.302C144.677 637.389 153.288 639.623 161.244 637.455C169.73 635.142 175.914 628.844 180.104 621.36C182.597 616.905 185.179 601.749 186.619 600.401C186.141 597.506 186.34 594.307 186.071 591.35C185.83 590.541 185.907 590.902 185.783 590.059C184.017 577.995 179.96 571.053 170.664 563.264C170.446 563.118 170.231 562.966 170.009 562.825Q169.348 562.409 168.666 562.027Q167.985 561.644 167.285 561.297Q166.585 560.95 165.868 560.638Q165.152 560.327 164.42 560.052Q163.689 559.777 162.945 559.539Q162.2 559.302 161.445 559.102Q160.689 558.903 159.925 558.741Q159.16 558.58 158.388 558.458Q157.617 558.336 156.84 558.252Q156.063 558.169 155.283 558.125Q154.503 558.082 153.721 558.077Q152.94 558.073 152.159 558.108Q151.379 558.143 150.601 558.218Q149.823 558.293 149.05 558.406Q148.277 558.52 147.511 558.673Q146.745 558.826 145.987 559.017C143.211 559.711 140.324 561.011 137.534 561.487C135.774 561.787 135.403 561.12 134.093 560.125ZM120.047 598.712C119.76 593.409 120.925 590.451 117.122 586.102C111.753 580.744 107.494 574.966 107.426 567.035C107.391 562.923 109.079 555.25 106.228 551.91C105.722 551.317 105.202 551.284 104.497 551.054C103.11 551.263 102.247 551.521 101.32 552.653C99.2308 555.204 100.303 572.044 101.026 575.764C102.931 585.568 111.189 592.942 119.24 598.196L120.047 598.712ZM204.011 559.557C201.602 561.835 199.31 564.063 197.248 566.665C197.526 570.856 197.537 575.148 196.406 579.226C194.78 585.09 191.258 588.492 186.071 591.35C186.34 594.307 186.141 597.506 186.619 600.401Q187.438 600.041 188.252 599.667C196.445 595.898 202.103 589.83 205.169 581.331C207.943 573.644 207.462 566.934 204.011 559.557Z"/>
	<path fill="#D82C2C" transform="scale(0.999808 0.999808)" d="M134.093 560.125C135.403 561.12 135.774 561.787 137.534 561.487C140.324 561.011 143.211 559.711 145.987 559.017Q146.745 558.826 147.511 558.673Q148.277 558.52 149.05 558.406Q149.823 558.293 150.601 558.218Q151.379 558.143 152.159 558.108Q152.94 558.073 153.721 558.077Q154.503 558.082 155.283 558.125Q156.063 558.169 156.84 558.252Q157.617 558.336 158.388 558.458Q159.16 558.58 159.925 558.741Q160.689 558.903 161.445 559.102Q162.2 559.302 162.945 559.539Q163.689 559.777 164.42 560.052Q165.152 560.327 165.868 560.638Q166.585 560.95 167.285 561.297Q167.985 561.644 168.666 562.027Q169.348 562.409 170.009 562.825C170.231 562.966 170.446 563.118 170.664 563.264C179.96 571.053 184.017 577.995 185.783 590.059C185.907 590.902 185.83 590.541 186.071 591.35C186.34 594.307 186.141 597.506 186.619 600.401C185.179 601.749 182.597 616.905 180.104 621.36C175.914 628.844 169.73 635.142 161.244 637.455C153.288 639.623 144.677 637.389 137.704 633.302C123.337 624.882 123.655 612.971 120.047 598.712C119.76 593.409 120.925 590.451 117.122 586.102C118.241 586.77 119.356 587.836 120.658 587.632C122.403 581.981 123.275 576.4 126.511 571.252C128.431 568.198 133.869 565.923 135.036 562.716C135.285 562.032 134.408 560.776 134.093 560.125ZM159.537 596.922C157.535 598.153 156.027 599.417 155.514 601.824C155.201 603.288 155.587 604.625 156.417 605.827C157.629 607.584 159.459 608.826 161.583 609.106C162.575 609.236 163.577 609.277 164.575 609.339C166.472 608.244 167.746 607.467 168.421 605.263C168.911 603.666 168.723 602.099 167.878 600.659C166.688 598.636 164.882 597.631 162.642 597.165C161.571 596.942 160.624 596.873 159.537 596.922ZM159.286 576.566C157.536 577.74 156.256 578.682 155.797 580.879Q155.722 581.223 155.684 581.573Q155.646 581.923 155.646 582.276Q155.646 582.628 155.684 582.978Q155.722 583.328 155.797 583.672Q155.872 584.016 155.983 584.351Q156.095 584.685 156.241 585.005Q156.388 585.325 156.568 585.628Q156.748 585.93 156.96 586.212C158.014 587.593 159.82 588.588 161.538 588.795C162.048 588.856 162.398 588.845 162.935 588.854C165.183 587.478 166.893 586.444 167.56 583.759C167.938 582.239 167.729 580.665 166.833 579.364C165.897 578.004 164.269 576.926 162.639 576.649C161.539 576.462 160.394 576.509 159.286 576.566ZM139.203 576.508C137.387 577.757 136.317 578.759 135.901 580.997C135.551 582.887 135.854 584.883 137.068 586.419C137.909 587.482 139.172 588.268 140.509 588.499C141.224 588.622 142.121 588.487 142.845 588.42C145.185 587.041 146.731 585.984 147.438 583.249C147.846 581.673 147.541 580.255 146.603 578.913C145.644 577.54 143.961 576.648 142.318 576.526C141.291 576.45 140.233 576.463 139.203 576.508ZM138.073 598.076C136.303 599.811 135.142 601.109 135.207 603.734C135.246 605.316 135.84 606.85 137.004 607.951C138.268 609.148 139.943 609.902 141.694 609.822C142.306 609.794 142.914 609.714 143.52 609.633C145.349 608.389 146.538 607.236 146.961 604.983C147.267 603.353 146.848 601.775 145.825 600.478C144.821 599.203 143.147 598.137 141.522 597.916C140.429 597.768 139.159 597.905 138.073 598.076ZM156.307 618.594C154.456 619.477 152.858 620.263 152.237 622.404C151.836 623.786 152.163 625.243 152.983 626.404C153.939 627.759 155.669 628.925 157.312 629.214C158.286 629.385 159.337 629.254 160.312 629.173C162.012 628.207 164.027 627.066 164.664 625.065C165.078 623.765 165.038 622.66 164.275 621.49C163.314 620.017 161.468 618.898 159.731 618.708C158.601 618.585 157.442 618.598 156.307 618.594Z"/>
</svg>
